<svg class="blender-symbol" xmlns="http://www.w3.org/2000/svg" viewBox="0 0 100 81"><path fill="#00578E" d="M52.1 45.5c.2-3.3 1.8-6.3 4.3-8.3 2.4-2 5.7-3.3 9.2-3.3 3.5 0 6.8 1.2 9.2 3.3 2.5 2.1 4.1 5 4.3 8.3.2 3.4-1.2 6.6-3.6 8.9-2.5 2.4-6 3.9-9.9 3.9-3.9 0-7.4-1.5-9.9-3.9-2.4-2.3-3.8-5.4-3.6-8.9z"/><path fill="#F68A39" d="M30.6 52.3c0 1.3.4 3.8 1.1 5.8 1.3 4.2 3.5 8 6.6 11.5 3.2 3.5 7.1 6.3 11.6 8.3 4.8 2.1 9.9 3.2 15.2 3.2 5.3 0 10.5-1.1 15.2-3.2 4.5-2 8.4-4.8 11.6-8.3 3.1-3.4 5.3-7.3 6.6-11.5.7-2.1 1.1-4.3 1.2-6.4.2-2.1.1-4.2-.2-6.4-.6-4.1-2-8-4.2-11.5-2-3.2-4.6-6.1-7.7-8.5L56.5 1.2l-.1-.1c-2.1-1.6-5.5-1.6-7.8 0s-2.5 4.2-.5 5.9l13 10.6H21.3c-3.3 0-6.4 2.2-7.1 4.9-.6 2.8 1.6 5.1 5 5.1h20.1L3.6 55.1l-.1.1C.1 57.8-1 62.1 1.2 64.8c2.2 2.8 6.8 2.8 10.2 0l19.6-16c-.1 0-.4 2.2-.4 3.5zM81 59.5c-4 4.1-9.7 6.4-15.8 6.4-6.1 0-11.8-2.3-15.8-6.4-2-2-3.4-4.3-4.3-6.7-.9-2.4-1.2-5-1-7.5.2-2.5 1-4.9 2.2-7.1 1.2-2.1 2.8-4.1 4.8-5.7 3.9-3.2 8.9-4.9 14.2-4.9 5.2 0 10.2 1.7 14.2 4.9 2 1.6 3.6 3.5 4.8 5.7 1.2 2.2 2 4.6 2.2 7.1.2 2.6-.1 5.1-1 7.5-1.1 2.4-2.5 4.7-4.5 6.7z"/></svg>
