<svg xmlns="http://www.w3.org/2000/svg" width="96" height="64" viewBox="0 0 96 64"><path fill="#4770D6" d="M96 5c0-2.8-2.5-5-5.3-5H5.1C2.4 0 0 2.2 0 5v54c0 2.8 2.4 5 5.1 5h85.6c2.8 0 5.3-2.2 5.3-5V5z"/><circle fill="#D15454" cx="38" cy="32" r="15.2"/><path fill="#FFB450" d="M58 16.8c-5 0-9.4 2.4-12.2 6.2H50v2h-5.5c-.3.6-.6 1.3-.9 2H52v2h-8.9c-.1.7-.2 1.3-.2 2H53v2H42.9c0 .7.1 1.3.2 2H52v2h-8.3c.2.7.5 1.4.9 2H50v2h-4.2c2.8 3.7 7.2 6.2 12.2 6.2 8.4 0 15.2-6.8 15.2-15.2S66.4 16.8 58 16.8z"/></svg>
