<svg xmlns="http://www.w3.org/2000/svg" width="96" height="64" viewBox="0 0 96 64"><path fill="#EFEFEF" d="M96 4.492C96 1.735 93.638 0 90.724 0H5.276C2.362 0 0 1.735 0 4.492v54.016C0 61.265 2.362 64 5.276 64h85.447C93.638 64 96 61.265 96 58.508V4.492z"/><path fill="#009CDE" d="M59.522 25.65c-.36-.41-.806-.75-1.328-1.025-.31-.164-.648-.306-1.01-.427-.09-.03-.183-.06-.276-.086-.187-.055-.38-.104-.58-.148-.2-.044-.404-.083-.615-.117-.738-.12-1.545-.175-2.41-.175h-7.306c-.18 0-.35.04-.504.114-.337.16-.587.48-.65.87L43.248 34.79l-1.4 8.877-.397 2.518c-.067.425.26.81.69.81h4.85c.575 0 1.064-.42 1.153-.986l.048-.247.915-5.793.06-.32c.088-.567.577-.985 1.15-.985h.726c4.7 0 8.378-1.91 9.453-7.43.45-2.307.217-4.232-.97-5.586z"/><path fill="#003087" d="M58.195 24.625c.346-2.206-.04-4.455-1.86-5.927-1.78-1.44-4.31-1.69-6.513-1.69h-9.32c-.656 0-1.215.476-1.317 1.125l-3.88 24.61c-.078.485.298.924.79.924h5.753l1.4-8.877c.102-.648.656-1.126 1.312-1.126h2.735c2.496 0 5.097-.48 7.132-2.01 2.227-1.674 3.346-4.342 3.768-7.03"/><path fill="#012169" d="M56.91 24.112c-1.166-.34-2.397-.44-3.607-.44h-7.306c-.562 0-1.064.427-1.152.984L43.292 34.5l-.045.288c.102-.648.656-1.126 1.312-1.126h2.734c2.496 0 5.097-.48 7.132-2.01 2.227-1.673 3.346-4.34 3.768-7.028-.408-.215-.842-.382-1.285-.512z"/></svg>
